<svg width="33" height="32" data-v-fde0c5aa="" xmlns="http://www.w3.org/2000/svg" viewBox="0 0 300 300" class="iconLeft"><!----><defs data-v-fde0c5aa=""><!----></defs><rect data-v-fde0c5aa="" fill="#132554" x="0" y="0" width="300px" height="300px" class="logo-background-square"></rect><defs data-v-fde0c5aa=""><!----></defs><g data-v-fde0c5aa="" id="a40eb422-04c5-40d9-a6d4-6989a5e966f8" fill="#ffffff" transform="matrix(1.7394955301952868,0,0,1.7394955301952868,114.31724457677213,132.7702972379111)"><path d="M0.13 13.78L2.23 13.78L2.79 11.56L5.54 11.56L6.09 13.78L8.27 13.78L5.43 4.54L2.97 4.54ZM3.21 9.95L3.42 9.09C3.64 8.16 3.91 7.08 4.13 6.10L4.19 6.10L4.91 9.09L5.12 9.95ZM10.02 13.78L12.08 13.78L12.08 10.02C12.67 8.74 13.57 8.26 14.42 8.26C14.94 8.26 15.22 8.34 15.65 8.47L16.07 6.75C15.67 6.57 15.34 6.45 14.73 6.45C13.62 6.45 12.60 7.03 11.91 8.20L11.87 8.20L11.70 6.64L10.02 6.64ZM21.53 13.94C23.09 13.94 24.54 12.53 24.54 10.08C24.54 7.88 23.48 6.45 21.74 6.45C21.07 6.45 20.36 6.78 19.81 7.29L19.87 6.16L19.87 3.65L17.81 3.65L17.81 13.78L19.42 13.78L19.59 12.99L19.64 12.99C20.22 13.62 20.89 13.94 21.53 13.94ZM21.07 12.26C20.71 12.26 20.26 12.14 19.87 11.77L19.87 8.83C20.30 8.36 20.71 8.13 21.15 8.13C22.02 8.13 22.43 8.82 22.43 10.12C22.43 11.61 21.83 12.26 21.07 12.26ZM29.37 5.80C30.18 5.80 30.77 5.26 30.77 4.42C30.77 3.58 30.18 3.00 29.37 3.00C28.56 3.00 27.97 3.58 27.97 4.42C27.97 5.26 28.56 5.80 29.37 5.80ZM26.05 13.78L32.87 13.78L32.87 12.11L30.49 12.11L30.49 6.64L26.05 6.64L26.05 8.25L28.43 8.25L28.43 12.11L26.05 12.11ZM39.03 13.94C39.93 13.94 40.68 13.75 41.30 13.55L40.94 12.07C40.53 12.22 40.08 12.33 39.55 12.33C38.54 12.33 38.09 11.90 38.09 10.81L38.09 8.25L41.03 8.25L41.03 6.64L38.09 6.64L38.09 3.70L36.13 4.54L36.13 6.64L34.29 6.64L34.29 8.25L36.04 8.25L36.04 10.82C36.04 12.68 36.82 13.94 39.03 13.94ZM43.62 13.78L45.68 13.78L45.68 10.02C46.27 8.74 47.17 8.26 48.02 8.26C48.54 8.26 48.82 8.34 49.25 8.47L49.67 6.75C49.27 6.57 48.94 6.45 48.33 6.45C47.22 6.45 46.20 7.03 45.51 8.20L45.47 8.20L45.30 6.64L43.62 6.64ZM53.54 13.94C54.43 13.94 55.30 13.51 56 12.96L56.06 12.96L56.21 13.78L57.89 13.78L57.89 9.66C57.89 7.50 56.70 6.45 54.75 6.45C53.56 6.45 52.46 6.87 51.79 7.43L52.51 8.78C53.02 8.37 53.68 8.11 54.35 8.11C55.29 8.11 55.76 8.51 55.83 9.18C52.54 9.39 51.25 10.21 51.25 11.80C51.25 13.01 52.14 13.94 53.54 13.94ZM54.19 12.35C53.61 12.35 53.23 12.12 53.23 11.65C53.23 11.00 53.79 10.54 55.83 10.42L55.83 11.65C55.34 12.05 54.81 12.35 54.19 12.35ZM62.58 16.81C64.95 16.81 66.19 15.69 66.19 13.78L66.19 6.64L64.58 6.64L64.41 7.38L64.36 7.38C63.83 6.76 63.20 6.45 62.47 6.45C60.87 6.45 59.46 7.88 59.46 10.08C59.46 12.15 60.63 13.59 62.38 13.59C63.04 13.59 63.78 13.30 64.25 12.82L64.20 13.99C64.19 14.55 63.60 15.20 62.58 15.20C62.01 15.20 61.24 15.05 60.58 14.53L59.89 15.93C60.70 16.60 61.81 16.81 62.58 16.81ZM62.92 11.94C62.10 11.94 61.54 11.26 61.54 10.05C61.54 8.83 62.24 8.13 62.94 8.13C63.38 8.13 63.76 8.27 64.13 8.64L64.13 11.23C63.76 11.75 63.36 11.94 62.92 11.94ZM71.82 13.94C72.74 13.94 73.78 13.62 74.56 13.12L73.89 11.87C73.28 12.21 72.73 12.38 72.10 12.38C71.08 12.38 70.22 11.90 70.08 10.81L74.76 10.81C74.79 10.63 74.84 10.25 74.84 9.88C74.84 7.94 73.72 6.45 71.58 6.45C69.73 6.45 67.97 7.87 67.97 10.21C67.97 12.57 69.66 13.94 71.82 13.94ZM70.06 9.44C70.24 8.48 70.88 8.04 71.62 8.04C72.56 8.04 72.98 8.60 72.98 9.44ZM75.85 13.78L78.05 13.78L79.00 11.87C79.24 11.40 79.45 10.92 79.67 10.36L79.73 10.36C79.98 10.92 80.21 11.40 80.46 11.87L81.45 13.78L83.75 13.78L81.09 9.13L83.59 4.54L81.38 4.54L80.57 6.30C80.37 6.72 80.18 7.20 79.95 7.78L79.90 7.78C79.62 7.20 79.41 6.72 79.20 6.30L78.32 4.54L76.01 4.54L78.51 9.03Z"></path></g><defs data-v-fde0c5aa=""><!----></defs><g data-v-fde0c5aa="" id="bb4144c5-15e8-4b98-9dae-70d08fb18529" stroke="none" fill="#00A3DD" transform="matrix(1.9232305933563423,0,0,1.9232305933563423,40,119.22831050629854)"><path d="M16 19.586l7.496-12.954H8.504zM7.496 12.414L0 25.368h14.992zM24.504 12.414l-7.496 12.954H32z"></path></g><!----></svg>